# 3ds Max Wavefront OBJ Exporter v0.97b - (c)2007 guruware
# File Created: 27.02.2016 14:16:24

mtllib car_09.mtl

#
# object car_09
#

v  -0.0000 0.8280 -0.5346
v  -0.6488 0.8274 -0.5343
v  -0.6481 0.8286 0.1475
v  -0.0001 0.8281 0.1486
v  -0.0002 0.2334 0.2714
v  -0.9727 0.2335 0.2726
v  -0.8744 -0.1119 2.4943
v  -0.0001 -0.1124 2.4945
v  -0.0001 -0.1123 0.4911
v  -0.8586 -0.1132 0.4917
v  -0.8630 -0.3009 2.6245
v  -0.8632 -0.3469 2.8096
v  -0.0000 -0.3467 2.8095
v  -0.0001 -0.3004 2.6240
v  -0.0001 0.2345 2.6246
v  -0.8623 0.2345 2.6244
v  -0.0000 -0.5369 2.7829
v  -0.8017 -0.5377 2.7835
v  -0.9860 -0.3603 2.5708
v  -0.9512 -0.5401 2.5711
v  -1.0272 -0.3683 2.4193
v  -1.0250 -0.5397 2.3568
v  -1.0033 0.2346 2.4186
v  -0.9782 0.2346 2.5705
v  -1.0818 -0.5397 1.9909
v  -1.0168 0.2345 1.7088
v  -1.0782 -0.2461 1.7112
v  -1.0030 0.2347 1.0340
v  -1.0158 0.0749 0.2715
v  -1.0669 -0.5318 1.0335
v  -1.0632 -0.5321 0.2683
v  -0.7976 0.7275 -0.5511
v  -0.7991 0.7286 0.1025
v  0.0001 0.7807 -0.6584
v  -0.5877 0.7791 -0.6595
v  -0.7394 0.6774 -0.6846
v  -0.9360 0.1804 -1.2881
v  -0.0006 0.2366 -1.5070
v  -1.0084 0.0729 -1.1363
v  -1.0112 0.0339 -1.7571
v  -1.0790 -0.2507 -1.6213
v  -1.0555 -0.5329 -1.3093
v  -0.9899 -0.0249 -2.1620
v  -1.0437 -0.2508 -2.0435
v  -0.0001 0.0261 -2.6920
v  -0.9118 -0.0085 -2.5492
v  0.0000 -0.0489 -2.7581
v  -0.9277 -0.0686 -2.5743
v  -0.9586 -0.0748 -2.5143
v  -1.0197 -0.3759 -2.2288
v  -1.0112 -0.4521 -2.2907
v  -0.9914 -0.4517 -2.5120
v  -0.9422 -0.4518 -2.5764
v  0.0000 -0.4512 -2.7579
v  -0.0000 -0.4881 -2.8096
v  -0.9794 -0.4886 -2.5982
v  0.0003 -0.8283 -2.7890
v  -0.9623 -0.8286 -2.5867
v  -1.0183 -0.4876 -2.5274
v  -0.9914 -0.8280 -2.5280
v  -1.0099 -0.8283 -2.3290
v  -1.0371 -0.4875 -2.3058
v  -1.0580 0.1211 -0.9929
v  -1.2559 0.1574 -0.9078
v  -1.2553 0.2814 -0.8969
v  -1.0712 0.2864 -0.9984
v  -1.2640 0.2825 -0.8686
v  -1.0508 0.2893 -0.9284
v  -1.0746 -0.2445 1.2862
v  -1.0132 0.2351 1.2891
v  -1.0146 0.1399 -0.9327
v  -0.9848 0.1505 -1.0706
v  -1.0071 0.0763 -1.1409
v  -0.4252 -0.2461 1.7112
v  -0.4252 -0.5397 1.9909
v  -0.4252 -0.2445 1.2862
v  -0.4252 -0.5318 1.0335
v  -0.4252 -0.2507 -1.6213
v  -0.4252 -0.5329 -1.3093
v  -0.4251 -0.2508 -2.0435
v  -0.4251 -0.4875 -2.3058
v  -0.4252 -0.8230 -1.3093
v  -1.0555 -0.8230 -1.3093
v  -0.4249 -0.8283 -2.3290
v  -0.0004 -0.8283 -2.3289
v  -0.0000 -0.5397 1.9909
v  -0.0000 -0.5329 -1.3093
v  -0.0000 -0.5318 1.0335
v  0.0000 -0.8230 -1.3093
v  0.0000 0.8280 -0.5346
v  0.0001 0.8281 0.1486
v  0.6481 0.8286 0.1475
v  0.6488 0.8274 -0.5343
v  0.0002 0.2334 0.2714
v  0.9727 0.2335 0.2726
v  0.8744 -0.1119 2.4943
v  0.8586 -0.1132 0.4917
v  0.0001 -0.1123 0.4911
v  0.0001 -0.1124 2.4945
v  0.8630 -0.3009 2.6245
v  0.0001 -0.3004 2.6240
v  0.0000 -0.3467 2.8095
v  0.8632 -0.3469 2.8096
v  0.0001 0.2345 2.6246
v  0.8623 0.2345 2.6244
v  0.0000 -0.5369 2.7829
v  0.8017 -0.5377 2.7835
v  0.9860 -0.3603 2.5708
v  0.9512 -0.5401 2.5711
v  1.0250 -0.5397 2.3568
v  1.0272 -0.3683 2.4193
v  1.0033 0.2346 2.4186
v  0.9782 0.2346 2.5705
v  1.0818 -0.5397 1.9909
v  1.0782 -0.2461 1.7112
v  1.0168 0.2345 1.7088
v  1.0669 -0.5318 1.0335
v  1.0632 -0.5321 0.2683
v  1.0158 0.0749 0.2715
v  1.0030 0.2347 1.0340
v  0.7991 0.7286 0.1025
v  0.7976 0.7275 -0.5511
v  0.5877 0.7791 -0.6595
v  -0.0001 0.7807 -0.6584
v  0.7394 0.6774 -0.6846
v  0.9360 0.1804 -1.2881
v  0.0006 0.2366 -1.5070
v  1.0084 0.0729 -1.1363
v  1.0555 -0.5329 -1.3093
v  1.0790 -0.2507 -1.6213
v  1.0112 0.0339 -1.7571
v  1.0437 -0.2508 -2.0435
v  0.9899 -0.0249 -2.1620
v  0.0001 0.0261 -2.6920
v  0.9118 -0.0085 -2.5492
v  0.9277 -0.0686 -2.5743
v  -0.0000 -0.0489 -2.7581
v  0.9586 -0.0748 -2.5143
v  1.0197 -0.3759 -2.2288
v  1.0112 -0.4521 -2.2907
v  0.9914 -0.4517 -2.5120
v  0.9422 -0.4518 -2.5764
v  -0.0000 -0.4512 -2.7579
v  0.9794 -0.4886 -2.5982
v  0.0000 -0.4881 -2.8096
v  0.9623 -0.8286 -2.5867
v  -0.0003 -0.8283 -2.7890
v  1.0183 -0.4876 -2.5274
v  0.9914 -0.8280 -2.5280
v  1.0371 -0.4875 -2.3058
v  1.0099 -0.8283 -2.3289
v  1.0580 0.1211 -0.9929
v  1.0712 0.2864 -0.9984
v  1.2553 0.2814 -0.8969
v  1.2559 0.1574 -0.9078
v  1.0508 0.2893 -0.9284
v  1.2640 0.2825 -0.8686
v  1.0746 -0.2445 1.2862
v  1.0132 0.2351 1.2891
v  1.0146 0.1399 -0.9327
v  1.0071 0.0763 -1.1409
v  0.9848 0.1505 -1.0706
v  0.4252 -0.5397 1.9909
v  0.4252 -0.2461 1.7112
v  0.4252 -0.2445 1.2862
v  0.4252 -0.5318 1.0335
v  0.4252 -0.5329 -1.3093
v  0.4252 -0.2507 -1.6213
v  0.4251 -0.2508 -2.0435
v  0.4251 -0.4875 -2.3058
v  1.0555 -0.8230 -1.3093
v  0.4252 -0.8230 -1.3093
v  0.4249 -0.8283 -2.3290
v  0.0004 -0.8283 -2.3289
v  0.0000 -0.5397 1.9909
v  0.0000 -0.5329 -1.3093
v  0.0000 -0.5318 1.0335
# 177 vertices

vn -0.0010 0.9833 -0.1822
vn -0.2917 0.9315 -0.2173
vn -0.2636 0.9646 -0.0010
vn 0.0007 1.0000 -0.0002
vn 0.0001 0.3758 0.9267
vn -0.0014 0.2022 0.9793
vn 0.0002 0.2040 0.9790
vn 0.0012 0.3912 0.9203
vn 0.0002 1.0000 -0.0001
vn 0.0006 1.0000 0.0000
vn -0.0006 1.0000 -0.0005
vn -0.0010 1.0000 -0.0007
vn -0.2771 0.9326 0.2313
vn -0.1338 0.9618 0.2387
vn -0.0004 0.9702 0.2421
vn -0.0004 0.9702 0.2423
vn 0.0003 -0.0006 1.0000
vn -0.0002 0.0002 1.0000
vn 0.0001 -0.0003 1.0000
vn 0.0006 -0.0011 1.0000
vn 0.0003 -0.1378 0.9905
vn 0.0002 -0.1381 0.9904
vn 0.0007 -0.1360 0.9907
vn 0.0008 -0.1355 0.9908
vn -0.8942 -0.2083 0.3962
vn -0.8814 -0.1567 0.4456
vn -0.8270 -0.2645 0.4961
vn -0.8320 -0.3294 0.4463
vn -0.4978 0.8419 0.2084
vn -0.9983 -0.0413 0.0411
vn -0.9796 -0.0399 0.1968
vn -0.9837 0.0172 0.1791
vn -0.9648 0.0385 0.2603
vn -0.8151 0.0252 0.5788
vn -0.7940 0.0082 0.6078
vn -0.9954 0.0750 0.0593
vn -0.9938 0.0443 0.1022
vn -0.9919 0.1269 0.0053
vn -0.9941 0.1060 0.0226
vn -0.9932 0.1105 -0.0358
vn -0.9585 0.2851 -0.0028
vn -0.9851 0.1710 -0.0178
vn -0.9958 0.0815 -0.0410
vn -0.9970 0.0779 -0.0049
vn -0.5193 0.8165 -0.2522
vn -0.5528 0.8333 -0.0012
vn -0.0481 0.8707 -0.4895
vn -0.1606 0.8320 -0.5310
vn -0.4337 0.7581 -0.4871
vn -0.1217 0.9117 -0.3924
vn -0.1351 0.9313 -0.3383
vn -0.8539 0.5131 -0.0873
vn -0.9643 0.2631 -0.0290
vn -0.8959 0.4294 -0.1142
vn -0.4447 0.7571 -0.4786
vn -0.5090 0.4339 0.7434
vn -0.7821 0.4294 0.4515
vn -0.8692 0.4865 -0.0883
vn -0.9878 0.1555 0.0124
vn -0.9967 0.0628 0.0506
vn -0.9059 0.4064 -0.1190
vn -0.9826 0.1515 -0.1077
vn -0.0769 0.9842 -0.1594
vn -0.0608 0.9870 -0.1491
vn -0.1606 0.6442 -0.7478
vn -0.1605 0.6532 -0.7400
vn -0.1569 0.4355 -0.8864
vn -0.1561 0.4163 -0.8957
vn -0.8359 0.4906 -0.2463
vn -0.9254 0.2599 -0.2760
vn -0.8776 0.2118 -0.4301
vn -0.9849 0.0407 -0.1680
vn -0.9890 0.0570 -0.1364
vn -0.9315 0.0790 -0.3550
vn -0.8050 0.0623 -0.5899
vn -0.1904 0.0094 -0.9817
vn -0.1944 -0.0005 -0.9809
vn -0.1931 0.0027 -0.9812
vn -0.1891 0.0126 -0.9819
vn -0.1256 0.8031 -0.5824
vn -0.1248 0.8076 -0.5763
vn -0.1488 0.6252 -0.7661
vn -0.1501 0.6110 -0.7772
vn -0.2066 -0.0468 -0.9773
vn -0.2106 -0.0592 -0.9758
vn -0.2096 -0.0559 -0.9762
vn -0.2055 -0.0433 -0.9777
vn -0.5680 0.7250 -0.3895
vn -0.7250 0.6459 -0.2392
vn -0.7121 0.6663 -0.2213
vn -0.5184 0.7576 -0.3965
vn -0.8771 -0.0673 -0.4756
vn -0.8947 -0.0599 -0.4427
vn -0.9585 -0.0692 -0.2767
vn -0.9558 -0.0751 -0.2844
vn -0.9930 -0.0731 -0.0924
vn -0.9933 -0.0766 -0.0870
vn -0.7912 0.6078 -0.0672
vn -0.7901 0.6093 -0.0675
vn -0.6378 0.0904 -0.7649
vn -0.3807 0.0833 -0.9209
vn -0.4244 0.0202 -0.9052
vn -0.5521 -0.0717 -0.8307
vn -0.0464 0.9976 -0.0505
vn -0.0470 0.9974 -0.0543
vn -0.0435 0.9986 -0.0310
vn -0.0432 0.9986 -0.0290
vn -0.9546 0.0314 -0.2962
vn -0.9921 0.1056 -0.0681
vn -0.9916 0.1271 -0.0240
vn 0.1557 -0.0884 0.9838
vn 0.2678 -0.2720 0.9243
vn 0.2100 -0.1764 0.9617
vn 0.1023 -0.0037 0.9947
vn -0.7442 0.3501 -0.5688
vn -0.6831 0.5999 -0.4166
vn 0.0008 0.5350 0.8448
vn 0.0000 0.5364 0.8440
vn 0.7475 0.3482 -0.5657
vn 0.4012 0.3096 -0.8621
vn 0.9102 0.3690 -0.1878
vn 0.9399 0.3329 -0.0762
vn 0.9211 0.3893 0.0047
vn 0.8850 0.4646 0.0318
vn 0.8811 0.4717 0.0343
vn 0.9390 0.3437 0.0119
vn 0.9485 0.3168 0.0073
vn 0.0003 0.3514 -0.9362
vn 0.0002 0.3512 -0.9363
vn 0.0003 0.3513 -0.9363
vn 0.0003 0.3515 -0.9362
vn -0.4048 0.0052 0.9144
vn -0.4219 0.0007 0.9066
vn 0.0000 -0.6896 -0.7242
vn 0.0000 -1.0000 -0.0037
vn -0.0000 -0.6604 0.7509
vn -0.0000 -0.7416 -0.6708
vn -0.0000 -1.0000 0.0004
vn -0.0249 -0.7127 0.7010
vn -0.0323 -0.7772 0.6284
vn -1.0000 -0.0000 -0.0000
vn -0.0000 0.0000 -1.0000
vn 0.0000 -0.0677 0.9977
vn -0.0000 -1.0000 0.0011
vn -0.0000 -1.0000 -0.0017
vn 0.0009 -1.0000 0.0024
vn 0.0025 -1.0000 0.0034
vn -0.0000 -1.0000 0.0005
vn -0.0000 -1.0000 -0.0083
vn -0.0000 -1.0000 0.0052
vn -1.0000 -0.0003 -0.0001
vn -1.0000 -0.0005 -0.0002
vn -1.0000 -0.0001 -0.0001
vn -1.0000 -0.0001 -0.0000
vn -1.0000 0.0001 -0.0001
vn 0.0010 0.9833 -0.1822
vn -0.0007 1.0000 -0.0002
vn 0.2636 0.9646 -0.0010
vn 0.2917 0.9315 -0.2173
vn -0.0001 0.3758 0.9267
vn -0.0012 0.3912 0.9203
vn -0.0002 0.2040 0.9790
vn 0.0014 0.2022 0.9793
vn -0.0002 1.0000 -0.0001
vn 0.0010 1.0000 -0.0007
vn 0.0006 1.0000 -0.0005
vn -0.0006 1.0000 0.0000
vn 0.2771 0.9326 0.2313
vn 0.0004 0.9702 0.2423
vn 0.0004 0.9702 0.2421
vn 0.1338 0.9618 0.2387
vn -0.0003 -0.0006 1.0000
vn -0.0006 -0.0011 1.0000
vn -0.0001 -0.0003 1.0000
vn 0.0002 0.0002 1.0000
vn -0.0003 -0.1378 0.9905
vn -0.0008 -0.1355 0.9908
vn -0.0007 -0.1360 0.9907
vn -0.0002 -0.1381 0.9904
vn 0.8942 -0.2083 0.3962
vn 0.8320 -0.3294 0.4463
vn 0.8270 -0.2645 0.4961
vn 0.8814 -0.1567 0.4456
vn 0.4978 0.8419 0.2084
vn 0.9796 -0.0399 0.1968
vn 0.9983 -0.0413 0.0411
vn 0.9837 0.0172 0.1791
vn 0.7940 0.0082 0.6078
vn 0.8151 0.0252 0.5788
vn 0.9648 0.0385 0.2603
vn 0.9938 0.0443 0.1022
vn 0.9954 0.0750 0.0593
vn 0.9941 0.1060 0.0226
vn 0.9919 0.1269 0.0053
vn 0.9958 0.0815 -0.0410
vn 0.9970 0.0779 -0.0049
vn 0.9851 0.1710 -0.0178
vn 0.9932 0.1105 -0.0358
vn 0.9585 0.2851 -0.0028
vn 0.5528 0.8333 -0.0012
vn 0.5193 0.8165 -0.2522
vn 0.1606 0.8320 -0.5310
vn 0.0481 0.8707 -0.4895
vn 0.4337 0.7581 -0.4871
vn 0.1217 0.9117 -0.3924
vn 0.1351 0.9313 -0.3383
vn 0.8539 0.5131 -0.0873
vn 0.4447 0.7571 -0.4786
vn 0.8959 0.4294 -0.1142
vn 0.9643 0.2631 -0.0290
vn 0.7821 0.4294 0.4515
vn 0.5090 0.4339 0.7434
vn 0.9967 0.0628 0.0506
vn 0.9878 0.1555 0.0124
vn 0.8692 0.4865 -0.0883
vn 0.9826 0.1515 -0.1077
vn 0.9059 0.4064 -0.1190
vn 0.0769 0.9842 -0.1594
vn 0.0608 0.9870 -0.1491
vn 0.1606 0.6442 -0.7478
vn 0.1561 0.4163 -0.8957
vn 0.1569 0.4355 -0.8864
vn 0.1605 0.6532 -0.7400
vn 0.8359 0.4906 -0.2463
vn 0.9254 0.2599 -0.2760
vn 0.8776 0.2118 -0.4301
vn 0.9849 0.0407 -0.1680
vn 0.9890 0.0570 -0.1364
vn 0.9315 0.0790 -0.3550
vn 0.8050 0.0623 -0.5899
vn 0.1904 0.0094 -0.9817
vn 0.1891 0.0126 -0.9819
vn 0.1931 0.0027 -0.9812
vn 0.1944 -0.0005 -0.9809
vn 0.1256 0.8031 -0.5824
vn 0.1501 0.6110 -0.7772
vn 0.1488 0.6252 -0.7661
vn 0.1248 0.8076 -0.5763
vn 0.2066 -0.0468 -0.9773
vn 0.2055 -0.0433 -0.9777
vn 0.2096 -0.0559 -0.9762
vn 0.2106 -0.0592 -0.9758
vn 0.5680 0.7250 -0.3895
vn 0.5184 0.7576 -0.3965
vn 0.7121 0.6663 -0.2213
vn 0.7250 0.6459 -0.2392
vn 0.8771 -0.0673 -0.4756
vn 0.9558 -0.0751 -0.2844
vn 0.9585 -0.0692 -0.2767
vn 0.8947 -0.0599 -0.4427
vn 0.9933 -0.0766 -0.0870
vn 0.9930 -0.0731 -0.0924
vn 0.7901 0.6093 -0.0675
vn 0.7912 0.6078 -0.0672
vn 0.6378 0.0904 -0.7649
vn 0.5521 -0.0717 -0.8307
vn 0.4244 0.0202 -0.9052
vn 0.3807 0.0833 -0.9209
vn 0.0464 0.9976 -0.0505
vn 0.0432 0.9986 -0.0290
vn 0.0435 0.9986 -0.0310
vn 0.0470 0.9974 -0.0543
vn 0.9546 0.0314 -0.2962
vn 0.9921 0.1056 -0.0681
vn 0.9916 0.1271 -0.0240
vn -0.1557 -0.0884 0.9838
vn -0.1023 -0.0037 0.9947
vn -0.2100 -0.1764 0.9617
vn -0.2678 -0.2720 0.9243
vn 0.6831 0.5999 -0.4166
vn 0.7442 0.3501 -0.5688
vn -0.0000 0.5364 0.8440
vn -0.0008 0.5350 0.8448
vn -0.9390 0.3437 0.0119
vn -0.9485 0.3168 0.0073
vn -0.9102 0.3690 -0.1878
vn -0.8811 0.4717 0.0343
vn -0.4012 0.3096 -0.8621
vn -0.7475 0.3482 -0.5657
vn -0.9399 0.3329 -0.0762
vn -0.9211 0.3893 0.0047
vn -0.8850 0.4646 0.0318
vn -0.0003 0.3514 -0.9362
vn -0.0003 0.3515 -0.9362
vn -0.0003 0.3513 -0.9363
vn -0.0002 0.3512 -0.9363
vn 0.4048 0.0052 0.9144
vn 0.4219 0.0007 0.9066
vn 0.0000 -0.7416 -0.6708
vn 0.0000 -1.0000 0.0004
vn 0.0249 -0.7127 0.7010
vn 0.0323 -0.7772 0.6284
vn 1.0000 -0.0000 -0.0000
vn 0.0000 0.0000 -1.0000
vn -0.0000 -0.0677 0.9977
vn 0.0000 -1.0000 0.0011
vn 0.0000 -1.0000 -0.0017
vn -0.0009 -1.0000 0.0024
vn -0.0025 -1.0000 0.0034
vn 0.0000 -1.0000 0.0005
vn 0.0000 -1.0000 -0.0083
vn 0.0000 -1.0000 0.0052
vn 1.0000 -0.0003 -0.0001
vn 1.0000 0.0001 -0.0001
vn 1.0000 -0.0001 -0.0000
vn 1.0000 -0.0001 -0.0001
vn 1.0000 -0.0005 -0.0002
# 307 vertex normals

vt 0.0827 0.3807 0.0000
vt 0.0827 0.2164 0.0000
vt 0.2534 0.2167 0.0000
vt 0.2537 0.3807 0.0000
vt 0.9954 0.8392 0.0000
vt 0.9954 0.9957 0.0000
vt 0.8316 0.9959 0.0000
vt 0.7495 0.8391 0.0000
vt 0.6640 0.2680 0.0000
vt 0.6627 0.1084 0.0000
vt 0.2879 0.1083 0.0000
vt 0.2907 0.2667 0.0000
vt 0.9503 0.0827 0.0000
vt 0.9503 0.0473 0.0000
vt 0.7741 0.0473 0.0000
vt 0.7742 0.0828 0.0000
vt 0.2782 0.1706 0.0000
vt 0.0063 0.1706 0.0000
vt 0.0061 0.0090 0.0000
vt 0.2782 0.0091 0.0000
vt 0.7741 0.0091 0.0000
vt 0.9376 0.0090 0.0000
vt 0.9931 0.0471 0.0000
vt 0.9800 0.0085 0.0000
vt 0.9846 0.0909 0.0000
vt 0.6683 0.7610 0.0000
vt 0.6682 0.8154 0.0000
vt 0.6250 0.8132 0.0000
vt 0.6069 0.7611 0.0000
vt 0.6286 0.9951 0.0000
vt 0.6693 0.9949 0.0000
vt 0.5019 0.7611 0.0000
vt 0.4210 0.9950 0.0000
vt 0.4217 0.8498 0.0000
vt 0.2274 0.9951 0.0000
vt 0.0090 0.9947 0.0000
vt 0.0087 0.9468 0.0000
vt 0.2273 0.7635 0.0000
vt 0.0078 0.7634 0.0000
vt 0.0787 0.1789 0.0000
vt 0.2422 0.1785 0.0000
vt 0.0517 0.3807 0.0000
vt 0.0514 0.2320 0.0000
vt 0.0455 0.1939 0.0000
vt 0.9996 0.4660 0.0000
vt 0.9494 0.6994 0.0000
vt 0.9081 0.7291 0.0000
vt 0.7583 0.7251 0.0000
vt 0.7536 0.4352 0.0000
vt 0.3402 0.5818 0.0000
vt 0.3799 0.5457 0.0000
vt 0.5329 0.7531 0.0000
vt 0.4980 0.7412 0.0000
vt 0.7483 0.5958 0.0000
vt 0.7326 0.8006 0.0000
vt 0.7039 0.7536 0.0000
vt 0.2176 0.5339 0.0000
vt 0.2531 0.4450 0.0000
vt 0.3347 0.3617 0.0000
vt 0.1117 0.5217 0.0000
vt 0.1427 0.4468 0.0000
vt 0.9915 0.4580 0.0000
vt 0.7575 0.4188 0.0000
vt 0.7571 0.0863 0.0000
vt 0.9968 0.1444 0.0000
vt 0.0065 0.7233 0.0000
vt 0.0065 0.7010 0.0000
vt 0.2695 0.6951 0.0000
vt 0.2653 0.7080 0.0000
vt 0.0105 0.5265 0.0000
vt 0.0196 0.5041 0.0000
vt 0.0040 0.5077 0.0000
vt 0.0943 0.4106 0.0000
vt 0.0781 0.3883 0.0000
vt 0.0202 0.3895 0.0000
vt 0.0034 0.3921 0.0000
vt 0.0065 0.5820 0.0000
vt 0.2736 0.5798 0.0000
vt 0.4319 0.0930 0.0000
vt 0.4319 0.0813 0.0000
vt 0.6502 0.0812 0.0000
vt 0.6494 0.0930 0.0000
vt 0.4318 0.0031 0.0000
vt 0.6469 0.0032 0.0000
vt 0.6659 0.0800 0.0000
vt 0.6699 0.0931 0.0000
vt 0.6636 0.0029 0.0000
vt 0.7137 0.0030 0.0000
vt 0.7141 0.0798 0.0000
vt 0.7140 0.0930 0.0000
vt 0.7836 0.9862 0.0000
vt 0.7300 0.9859 0.0000
vt 0.7297 0.9602 0.0000
vt 0.7819 0.9516 0.0000
vt 0.7211 0.9566 0.0000
vt 0.7694 0.9384 0.0000
vt 0.0103 0.3295 0.0000
vt 0.0285 0.3289 0.0000
vt 0.0355 0.2673 0.0000
vt 0.2998 0.8503 0.0000
vt 0.3006 0.9952 0.0000
vt 0.7142 0.9198 0.0000
vt 0.7702 0.8975 0.0000
vt 0.7039 0.3031 0.0000
vt 0.7056 0.3346 0.0000
vt 0.7377 0.3003 0.0000
vt 0.7244 0.2893 0.0000
vt 0.7783 0.7341 0.0000
vt 0.9954 0.7343 0.0000
vt 0.6786 0.3541 0.0000
vt 0.6887 0.3523 0.0000
vt 0.6686 0.3559 0.0000
vt 0.5562 0.3549 0.0000
vt 0.4515 0.3545 0.0000
vt 0.4046 0.3542 0.0000
vt 0.2645 0.3536 0.0000
vt 0.7448 0.2616 0.0000
vt 0.7429 0.1015 0.0000
vt 0.7480 0.5459 0.0000
vt 0.7472 0.3615 0.0000
vt 0.7003 0.8335 0.0000
vt 0.7004 0.9949 0.0000
vt 0.3457 0.0464 0.7071
vt 0.3502 0.0465 0.5366
vt 0.3502 0.0606 0.5366
vt 0.3457 0.0606 0.7071
vt 0.3360 0.0465 0.5366
vt 0.3379 0.0465 0.5529
vt 0.3379 0.0606 0.5529
vt 0.3360 0.0606 0.5366
vt 0.3421 0.0467 0.6883
vt 0.3421 0.0606 0.6883
vt 0.3417 0.0385 0.5001
vt 0.3461 0.0377 0.5363
vt 0.3461 0.0611 0.5363
vt 0.3417 0.0611 0.5001
vt 0.3490 0.0390 0.5460
vt 0.3490 0.0611 0.5460
vt 0.3522 0.0401 0.4866
vt 0.3527 0.0392 0.4857
vt 0.3527 0.0611 0.4857
vt 0.3511 0.0398 0.4915
vt 0.3367 0.0433 0.0000
vt 0.3670 0.0425 0.0000
vt 0.3581 0.0726 0.0000
vt 0.3447 0.0727 0.0000
vt 0.3651 0.0385 0.5001
vt 0.3651 0.0611 0.5001
vt 0.3621 0.0611 0.7006
vt 0.3621 0.0385 0.7006
vt 0.3563 0.0402 0.7071
vt 0.3563 0.0611 0.7071
vt 0.3389 0.0635 0.0000
vt 0.3397 0.0638 0.0000
vt 0.3674 0.0650 0.0000
vt 0.3674 0.0624 0.0000
vt 0.3383 0.0624 0.0000
vt 0.3379 0.0362 0.0000
vt 0.3363 0.0382 0.0000
vt 0.3674 0.0382 0.0000
vt 0.3674 0.0338 0.0000
vt 0.3400 0.0350 0.0000
vt 0.3443 0.0338 0.0000
vt 0.3368 0.0479 0.0000
vt 0.3370 0.0567 0.0000
vt 0.3674 0.0567 0.0000
vt 0.3674 0.0436 0.0000
vt 0.3367 0.0436 0.0000
vt 0.3552 0.0382 0.0000
vt 0.3552 0.0436 0.0000
vt 0.3552 0.0567 0.0000
vt 0.3552 0.0624 0.0000
vt 0.3441 0.0537 0.0000
vt 0.3435 0.0390 0.0000
vt 0.3685 0.0392 0.0000
vt 0.3685 0.0517 0.0000
vt 0.3608 0.0639 0.0000
vt 0.3505 0.0639 0.0000
# 178 texture coords

g car_09
usemtl car9
s 1
f 1/1/1 2/2/2 3/3/3 4/4/4 
s 2
f 5/5/5 4/6/6 3/7/7 6/8/8 
s 1
f 7/9/9 8/10/10 9/11/11 10/12/12 
f 11/13/13 12/14/14 13/15/15 14/16/16 
s 2
f 15/17/17 16/18/18 11/19/19 14/20/20 
f 17/21/21 13/15/22 12/14/23 18/22/24 
s 4
f 19/23/25 20/24/26 18/22/27 12/14/28 
s 1
f 12/14/14 11/13/13 19/25/29 
s 4
f 20/26/26 19/27/25 21/28/30 22/29/31 
s 8
f 23/30/32 21/28/33 19/27/34 24/31/35 
s 4
f 22/29/31 21/28/30 23/30/36 25/32/37 
f 23/30/36 26/33/38 27/34/39 25/32/37 
f 28/35/40 6/36/41 29/37/42 30/38/43 
f 29/37/42 31/39/44 30/38/43 
s 1
f 2/2/2 32/40/45 33/41/46 3/3/3 
f 1/1/1 34/42/47 35/43/48 2/2/2 
f 36/44/49 32/40/45 2/2/2 35/43/48 
f 37/45/50 36/46/49 35/47/48 34/48/47 
f 37/45/50 34/48/47 38/49/51 
s 4
f 37/50/52 39/51/53 32/52/54 36/53/55 
f 6/54/41 3/55/56 33/56/57 
f 39/51/53 40/57/58 41/58/59 42/59/60 
f 41/58/59 40/57/58 43/60/61 44/61/62 
s 1
f 45/62/63 46/63/64 37/64/50 38/65/51 
s 2
f 45/66/65 47/67/66 48/68/67 46/69/68 
s 4
f 46/70/69 49/71/70 43/60/61 40/57/58 
f 40/57/58 39/51/53 37/50/52 46/70/69 
f 48/72/71 49/71/70 46/70/69 
f 49/71/70 50/73/72 44/61/62 43/60/61 
f 51/74/73 50/73/72 49/71/70 52/75/74 
f 49/71/70 48/72/71 53/76/75 52/75/74 
s 1
f 48/68/76 47/67/77 54/77/78 53/78/79 
s 2
f 54/79/80 55/80/81 56/81/82 53/82/83 
s 1
f 56/81/84 55/80/85 57/83/86 58/84/87 
s 8
f 56/81/88 59/85/89 52/86/90 53/82/91 
s 4
f 56/81/92 58/84/93 60/87/94 59/85/95 
f 60/87/94 61/88/96 62/89/97 59/85/95 
s 8
f 59/85/89 62/89/98 51/90/99 52/86/90 
s 1
f 63/91/100 64/92/101 65/93/102 66/94/103 
s 2
f 65/93/104 67/95/105 68/96/106 66/94/107 
s 4
f 67/97/108 65/98/108 64/99/108 
f 69/100/109 27/34/39 26/33/38 70/101/110 
s 8
f 68/96/111 67/95/112 64/102/113 71/103/114 
s 1
f 63/104/100 66/105/103 72/106/115 73/107/116 
s 2
f 5/5/5 6/8/8 10/108/117 9/109/118 
s 16
f 24/110/119 16/111/120 7/9/121 23/112/122 
f 26/113/123 23/112/122 7/9/121 70/114/124 
f 28/115/125 70/114/124 7/9/121 6/116/126 
f 6/116/126 7/9/121 10/12/127 
s 4
f 16/117/128 15/118/129 8/10/130 7/9/131 
f 32/52/54 39/51/53 29/119/42 6/54/41 
f 33/56/57 32/52/54 6/54/41 
f 29/119/42 39/51/53 42/59/60 31/120/44 
f 69/100/109 70/101/110 28/35/40 30/38/43 
s 8
f 11/121/132 16/122/133 24/31/35 19/27/34 
s off
f 25/123/134 27/124/134 74/125/134 75/126/134 
f 27/127/135 69/128/135 76/129/135 74/130/135 
f 69/128/136 30/131/136 77/132/136 76/129/136 
f 42/133/137 41/134/137 78/135/137 79/136/137 
f 41/134/138 44/137/138 80/138/138 78/135/138 
f 51/139/139 62/140/139 81/141/139 80/138/139 
f 50/142/140 51/139/140 80/138/140 44/137/140 
s 1
f 77/143/141 75/144/141 74/145/141 76/146/141 
s off
f 42/147/142 79/148/142 82/149/142 83/150/142 
f 62/140/143 61/151/143 84/152/143 81/141/143 
f 60/153/144 58/154/144 57/155/144 85/156/144 
f 61/157/145 60/153/145 85/156/145 
f 22/158/146 25/159/146 86/160/146 17/161/146 
f 20/162/147 22/158/147 17/161/147 18/163/147 
f 31/164/148 42/165/148 87/166/148 88/167/148 
f 30/168/148 31/164/148 88/167/148 
f 75/169/149 77/170/149 88/167/149 86/160/149 
f 82/171/150 84/172/150 85/156/150 89/166/150 
f 82/59/142 79/59/142 87/59/142 89/59/142 
s 1
f 81/173/151 84/174/152 82/175/153 79/176/141 
f 81/173/151 79/176/141 78/177/154 80/178/155 
f 90/1/156 91/4/157 92/3/158 93/2/159 
s 2
f 94/5/160 95/8/161 92/7/162 91/6/163 
s 1
f 96/9/164 97/12/165 98/11/166 99/10/167 
f 100/13/168 101/16/169 102/15/170 103/14/171 
s 2
f 104/17/172 101/20/173 100/19/174 105/18/175 
f 106/21/176 107/22/177 103/14/178 102/15/179 
s 4
f 108/23/180 103/14/181 107/22/182 109/24/183 
s 1
f 103/14/171 108/25/184 100/13/168 
s 4
f 109/26/183 110/29/185 111/28/186 108/27/180 
s 8
f 112/30/187 113/31/188 108/27/189 111/28/190 
s 4
f 110/29/185 114/32/191 112/30/192 111/28/186 
f 112/30/192 114/32/191 115/34/193 116/33/194 
f 117/38/195 118/39/196 119/37/197 120/35/198 
f 120/35/198 119/37/197 95/36/199 
s 1
f 93/2/159 92/3/158 121/41/200 122/40/201 
f 90/1/156 93/2/159 123/43/202 124/42/203 
f 125/44/204 123/43/202 93/2/159 122/40/201 
f 126/45/205 127/49/206 124/48/203 123/47/202 
f 126/45/205 123/47/202 125/46/204 
s 4
f 126/50/207 125/53/208 122/52/209 128/51/210 
f 95/54/199 121/56/211 92/55/212 
f 128/51/210 129/59/213 130/58/214 131/57/215 
f 130/58/214 132/61/216 133/60/217 131/57/215 
s 1
f 134/62/218 127/65/206 126/64/205 135/63/219 
s 2
f 134/66/220 135/69/221 136/68/222 137/67/223 
s 4
f 126/50/207 128/51/210 131/57/215 135/70/224 
f 135/70/224 131/57/215 133/60/217 138/71/225 
f 136/72/226 135/70/224 138/71/225 
f 138/71/225 133/60/217 132/61/216 139/73/227 
f 140/74/228 141/75/229 138/71/225 139/73/227 
f 138/71/225 141/75/229 142/76/230 136/72/226 
s 1
f 136/68/231 142/78/232 143/77/233 137/67/234 
s 2
f 143/79/235 142/82/236 144/81/237 145/80/238 
s 1
f 144/81/239 146/84/240 147/83/241 145/80/242 
s 8
f 144/81/243 142/82/244 141/86/245 148/85/246 
s 4
f 144/81/247 148/85/248 149/87/249 146/84/250 
f 149/87/249 148/85/248 150/89/251 151/88/252 
s 8
f 148/85/246 141/86/245 140/90/253 150/89/254 
s 1
f 152/91/255 153/94/256 154/93/257 155/92/258 
s 2
f 154/93/259 153/94/260 156/96/261 157/95/262 
s 4
f 157/97/263 155/99/263 154/98/263 
f 158/100/264 159/101/265 116/33/194 115/34/193 
s 8
f 156/96/266 160/103/267 155/102/268 157/95/269 
s 1
f 152/104/255 161/107/270 162/106/271 153/105/256 
s 2
f 94/5/160 98/109/272 97/108/273 95/8/161 
s 16
f 95/116/274 97/12/275 96/9/276 120/115/277 
f 96/9/276 105/111/278 113/110/279 112/112/280 
f 96/9/276 112/112/280 116/113/281 159/114/282 
f 96/9/276 159/114/282 120/115/277 
s 4
f 105/117/283 96/9/284 99/10/285 104/118/286 
f 119/119/197 128/51/210 122/52/209 95/54/199 
f 121/56/211 95/54/199 122/52/209 
f 119/119/197 118/120/196 129/59/213 128/51/210 
f 158/100/264 117/38/195 120/35/198 159/101/265 
s 8
f 100/121/287 108/27/189 113/31/188 105/122/288 
s off
f 114/123/134 163/126/134 164/125/134 115/124/134 
f 115/127/135 164/130/135 165/129/135 158/128/135 
f 158/128/136 165/129/136 166/132/136 117/131/136 
f 129/133/289 167/136/289 168/135/289 130/134/289 
f 130/134/290 168/135/290 169/138/290 132/137/290 
f 170/141/291 150/140/291 140/139/291 169/138/291 
f 169/138/292 140/139/292 139/142/292 132/137/292 
s 1
f 166/143/293 165/146/293 164/145/293 163/144/293 
s off
f 129/147/294 171/150/294 172/149/294 167/148/294 
f 150/140/295 170/141/295 173/152/295 151/151/295 
f 147/155/296 146/154/296 149/153/296 174/156/296 
f 151/157/297 174/156/297 149/153/297 
f 175/160/298 114/159/298 110/158/298 106/161/298 
f 106/161/299 110/158/299 109/162/299 107/163/299 
f 176/166/300 129/165/300 118/164/300 177/167/300 
f 117/168/300 177/167/300 118/164/300 
f 163/169/301 175/160/301 177/167/301 166/170/301 
f 172/171/302 89/166/302 174/156/302 173/172/302 
f 172/59/294 89/59/294 176/59/294 167/59/294 
s 1
f 170/173/303 169/178/304 168/177/305 167/176/293 
f 170/173/303 167/176/293 172/175/306 173/174/307 
# 132 polygons - 20 triangles

