# 3ds Max Wavefront OBJ Exporter v0.97b - (c)2007 guruware
# File Created: 24.02.2016 13:00:36

mtllib wheel.mtl

#
# object wheel
#

v  -0.1870 0.3943 -0.0000
v  -0.1865 0.3397 0.1966
v  0.1666 0.3414 0.1971
v  0.1666 0.3943 -0.0000
v  -0.1870 0.1971 0.3415
v  0.1666 0.1971 0.3415
v  -0.1865 -0.0004 0.3930
v  0.1666 -0.0000 0.3943
v  -0.1870 -0.1972 0.3415
v  0.1666 -0.1972 0.3415
v  -0.1865 -0.3406 0.1966
v  0.1666 -0.3415 0.1971
v  -0.1870 -0.3943 -0.0000
v  0.1666 -0.3943 -0.0000
v  -0.1865 -0.3406 -0.1962
v  0.1666 -0.3415 -0.1971
v  -0.1870 -0.1972 -0.3415
v  0.1666 -0.1972 -0.3415
v  -0.1865 -0.0004 -0.3925
v  0.1666 -0.0000 -0.3943
v  -0.1870 0.1971 -0.3415
v  0.1666 0.1971 -0.3415
v  -0.1865 0.3397 -0.1962
v  0.1666 0.3414 -0.1971
v  0.1662 0.0860 0.0497
v  0.1662 0.0496 0.0860
v  0.1662 -0.0000 0.0993
v  0.1662 0.0860 -0.0497
v  0.1662 -0.0497 0.0860
v  0.1662 -0.0861 0.0497
v  0.1662 -0.0861 -0.0497
v  0.1662 -0.0994 -0.0000
v  0.1662 -0.0497 -0.0860
v  0.1662 -0.0000 -0.0993
v  0.1662 0.0496 -0.0860
v  0.1662 0.0993 -0.0000
v  0.1870 0.3231 0.1866
v  0.1870 0.3731 -0.0000
v  0.1870 0.1866 0.3232
v  0.1870 -0.0000 0.3732
v  0.1870 -0.1866 0.3232
v  0.1870 -0.3232 0.1866
v  0.1870 -0.3732 -0.0000
v  0.1870 -0.3232 -0.1866
v  0.1870 -0.1866 -0.3232
v  0.1870 -0.0000 -0.3732
v  0.1870 0.1866 -0.3232
v  0.1870 0.3231 -0.1866
v  0.1870 0.1098 -0.0634
v  0.1870 0.0634 -0.1099
v  0.1870 -0.0000 -0.1269
v  0.1870 -0.0635 -0.1099
v  0.1870 -0.1099 -0.0634
v  0.1870 -0.1269 -0.0000
v  0.1870 -0.1099 0.0634
v  0.1870 -0.0635 0.1099
v  0.1870 -0.0000 0.1269
v  0.1870 0.0634 0.1099
v  0.1870 0.1098 0.0634
v  0.1870 0.1268 -0.0000
# 60 vertices

vn -0.0018 1.0000 -0.0018
vn -0.0034 0.8650 0.5017
vn -0.0032 0.8654 0.5011
vn -0.0019 1.0000 -0.0016
vn -0.0013 0.5015 0.8652
vn -0.0016 0.5011 0.8654
vn -0.0025 -0.0016 1.0000
vn -0.0023 -0.0009 1.0000
vn -0.0010 -0.4990 0.8666
vn -0.0011 -0.4992 0.8665
vn -0.0020 -0.8664 0.4993
vn -0.0011 -1.0000 0.0006
vn -0.0010 -1.0000 0.0008
vn -0.0024 -0.8658 -0.5004
vn -0.0026 -0.8655 -0.5010
vn -0.0016 -0.5006 -0.8657
vn -0.0013 -0.5010 -0.8655
vn -0.0032 0.0008 -1.0000
vn -0.0034 0.0015 -1.0000
vn -0.0019 0.4989 -0.8667
vn -0.0018 0.4987 -0.8668
vn -0.0038 0.8668 -0.4986
vn 1.0000 0.0000 0.0000
vn 0.7071 0.6830 0.1830
vn 0.7071 0.5000 0.5000
vn 0.7071 0.1830 0.6830
vn 0.7071 -0.1830 0.6830
vn 0.7071 -0.5000 0.5000
vn 0.7071 -0.6830 0.1830
vn 0.7071 -0.6830 -0.1830
vn 0.7071 -0.5000 -0.5000
vn 0.7071 -0.1830 -0.6830
vn 0.7071 0.1830 -0.6830
vn 0.7071 0.5000 -0.5000
vn 0.7071 0.6830 -0.1830
vn 0.7888 -0.5937 -0.1591
vn 0.7888 -0.4346 -0.4346
vn 0.7888 -0.1591 -0.5937
vn 0.7888 0.1591 -0.5937
vn 0.7888 0.4346 -0.4346
vn 0.7888 0.5937 -0.1591
vn 0.7888 0.5937 0.1591
vn 0.7888 0.4346 0.4346
vn 0.7888 0.1591 0.5937
vn 0.7888 -0.1591 0.5937
vn 0.7888 -0.4346 0.4346
vn 0.7888 -0.5937 0.1591
vn -1.0000 0.0018 0.0010
vn -1.0000 -0.0080 -0.0046
vn -1.0000 -0.0006 -0.0004
vn -1.0000 0.0000 0.0000
vn -1.0000 0.0006 0.0004
vn -1.0000 -0.0018 -0.0010
vn -1.0000 0.0081 0.0047
# 54 vertex normals

vt 0.1214 0.0203 1.0000
vt 0.1328 0.0203 1.0000
vt 0.1328 0.1497 1.0000
vt 0.1214 0.1497 1.0000
vt 0.1442 0.0203 1.0000
vt 0.1442 0.1497 1.0000
vt 0.1556 0.0203 1.0000
vt 0.1556 0.1497 1.0000
vt 0.0188 0.0203 1.0000
vt 0.0302 0.0203 1.0000
vt 0.0302 0.1497 1.0000
vt 0.0188 0.1497 1.0000
vt 0.0416 0.0203 1.0000
vt 0.0416 0.1497 1.0000
vt 0.0530 0.0203 1.0000
vt 0.0530 0.1497 1.0000
vt 0.0644 0.0203 1.0000
vt 0.0644 0.1497 1.0000
vt 0.0758 0.0203 1.0000
vt 0.0758 0.1497 1.0000
vt 0.0872 0.0203 1.0000
vt 0.0872 0.1497 1.0000
vt 0.0986 0.0203 1.0000
vt 0.0986 0.1497 1.0000
vt 0.1100 0.0203 1.0000
vt 0.1100 0.1497 1.0000
vt 0.4395 0.6034 0.0000
vt 0.3951 0.5590 0.0000
vt 0.3789 0.4985 0.0000
vt 0.5606 0.6034 0.0000
vt 0.3951 0.4379 0.0000
vt 0.4395 0.3936 0.0000
vt 0.5606 0.3936 0.0000
vt 0.5000 0.3774 0.0000
vt 0.6049 0.4379 0.0000
vt 0.6211 0.4985 0.0000
vt 0.6049 0.5590 0.0000
vt 0.5000 0.6196 0.0000
vt 0.2596 0.9148 0.0000
vt 0.2725 0.8925 0.0000
vt 0.5000 0.9535 0.0000
vt 0.5000 0.9793 0.0000
vt 0.0836 0.7389 0.0000
vt 0.1059 0.7260 0.0000
vt 0.0192 0.4985 0.0000
vt 0.0450 0.4985 0.0000
vt 0.0836 0.2581 0.0000
vt 0.1059 0.2710 0.0000
vt 0.2596 0.0821 0.0000
vt 0.2725 0.1044 0.0000
vt 0.5000 0.0177 0.0000
vt 0.5000 0.0435 0.0000
vt 0.7404 0.0821 0.0000
vt 0.7275 0.1044 0.0000
vt 0.9164 0.2581 0.0000
vt 0.8941 0.2710 0.0000
vt 0.9808 0.4985 0.0000
vt 0.9550 0.4985 0.0000
vt 0.9164 0.7389 0.0000
vt 0.8941 0.7260 0.0000
vt 0.7404 0.9148 0.0000
vt 0.7275 0.8925 0.0000
vt 0.5773 0.6324 0.0000
vt 0.6339 0.5758 0.0000
vt 0.6547 0.4985 0.0000
vt 0.6339 0.4212 0.0000
vt 0.5773 0.3645 0.0000
vt 0.5000 0.3438 0.0000
vt 0.4227 0.3645 0.0000
vt 0.3661 0.4212 0.0000
vt 0.3453 0.4985 0.0000
vt 0.3661 0.5758 0.0000
vt 0.4227 0.6324 0.0000
vt 0.5000 0.6532 0.0000
vt 0.1577 0.0893 0.2500
vt 0.1480 0.1245 0.2500
vt 0.1229 0.1495 0.2500
# 77 texture coords

g wheel
usemtl Standard_7
s 8
f 1/1/1 2/2/2 3/3/3 4/4/4 
f 2/2/2 5/5/5 6/6/6 3/3/3 
f 5/5/5 7/7/7 8/8/8 6/6/6 
f 7/9/7 9/10/9 10/11/10 8/12/8 
f 9/10/9 11/13/11 12/14/11 10/11/10 
f 11/13/11 13/15/12 14/16/13 12/14/11 
f 13/15/12 15/17/14 16/18/15 14/16/13 
f 15/17/14 17/19/16 18/20/17 16/18/15 
f 17/19/16 19/21/18 20/22/19 18/20/17 
f 19/21/18 21/23/20 22/24/21 20/22/19 
f 21/23/20 23/25/22 24/26/22 22/24/21 
f 23/25/22 1/1/1 4/4/4 24/26/22 
s 1
f 25/27/23 26/28/23 27/29/23 28/30/23 
f 27/29/23 29/31/23 30/32/23 31/33/23 
f 30/32/23 32/34/23 31/33/23 
f 31/33/23 33/35/23 34/36/23 28/30/23 
f 34/36/23 35/37/23 28/30/23 
f 27/29/23 31/33/23 28/30/23 
f 36/38/23 25/27/23 28/30/23 
s off
f 3/39/24 37/40/24 38/41/24 4/42/24 
f 6/43/25 39/44/25 37/40/25 3/39/25 
f 8/45/26 40/46/26 39/44/26 6/43/26 
f 10/47/27 41/48/27 40/46/27 8/45/27 
f 12/49/28 42/50/28 41/48/28 10/47/28 
f 14/51/29 43/52/29 42/50/29 12/49/29 
f 16/53/30 44/54/30 43/52/30 14/51/30 
f 18/55/31 45/56/31 44/54/31 16/53/31 
f 20/57/32 46/58/32 45/56/32 18/55/32 
f 22/59/33 47/60/33 46/58/33 20/57/33 
f 24/61/34 48/62/34 47/60/34 22/59/34 
f 4/42/35 38/41/35 48/62/35 24/61/35 
f 47/60/23 48/62/23 49/63/23 50/64/23 
f 46/58/23 47/60/23 50/64/23 51/65/23 
f 45/56/23 46/58/23 51/65/23 52/66/23 
f 44/54/23 45/56/23 52/66/23 53/67/23 
f 43/52/23 44/54/23 53/67/23 54/68/23 
f 42/50/23 43/52/23 54/68/23 55/69/23 
f 41/48/23 42/50/23 55/69/23 56/70/23 
f 40/46/23 41/48/23 56/70/23 57/71/23 
f 39/44/23 40/46/23 57/71/23 58/72/23 
f 37/40/23 39/44/23 58/72/23 59/73/23 
f 38/41/23 37/40/23 59/73/23 60/74/23 
f 48/62/23 38/41/23 60/74/23 49/63/23 
f 60/74/36 59/73/36 25/27/36 36/38/36 
f 59/73/37 58/72/37 26/28/37 25/27/37 
f 58/72/38 57/71/38 27/29/38 26/28/38 
f 57/71/39 56/70/39 29/31/39 27/29/39 
f 56/70/40 55/69/40 30/32/40 29/31/40 
f 55/69/41 54/68/41 32/34/41 30/32/41 
f 54/68/42 53/67/42 31/33/42 32/34/42 
f 53/67/43 52/66/43 33/35/43 31/33/43 
f 52/66/44 51/65/44 34/36/44 33/35/44 
f 51/65/45 50/64/45 35/37/45 34/36/45 
f 50/64/46 49/63/46 28/30/46 35/37/46 
f 49/63/47 60/74/47 36/38/47 28/30/47 
s 3
f 17/15/48 15/13/49 13/10/48 19/17/50 
f 19/17/50 13/10/48 11/9/50 21/19/51 
f 21/19/51 11/9/50 9/5/51 23/75/52 
f 23/75/52 9/5/51 7/76/52 1/1/53 
f 5/2/53 2/77/54 1/1/53 7/76/52 
# 56 polygons - 4 triangles

